<mxfile host="app.diagrams.net" modified="2021-01-28T03:48:12.696Z" agent="5.0 (Macintosh; Intel Mac OS X 10_15_7) AppleWebKit/537.36 (KHTML, like Gecko) Chrome/88.0.4324.96 Safari/537.36" etag="xlYlskz9V_PDWxTpJV8n" version="14.2.7" type="github">
  <diagram id="WpXDFTtTBJNSRBlpLcLN" name="Page-1">
    <mxGraphModel dx="1257" dy="843" grid="1" gridSize="10" guides="1" tooltips="1" connect="1" arrows="1" fold="1" page="1" pageScale="1" pageWidth="827" pageHeight="1169" math="0" shadow="0">
      <root>
        <mxCell id="0" />
        <mxCell id="1" parent="0" />
        <mxCell id="30PJP_qh06dxxzhTbJQh-1" value="安全代理" style="rounded=0;whiteSpace=wrap;html=1;" parent="1" vertex="1">
          <mxGeometry x="330" y="140" width="130" height="50" as="geometry" />
        </mxCell>
        <mxCell id="30PJP_qh06dxxzhTbJQh-2" value="&lt;b&gt;&lt;font style=&quot;font-size: 18px&quot; color=&quot;#ff3333&quot;&gt;2021.1.25现状&lt;/font&gt;&lt;/b&gt;" style="text;html=1;strokeColor=none;fillColor=none;align=center;verticalAlign=middle;whiteSpace=wrap;rounded=0;" parent="1" vertex="1">
          <mxGeometry x="70" y="50" width="170" height="60" as="geometry" />
        </mxCell>
        <mxCell id="30PJP_qh06dxxzhTbJQh-3" value="风控引擎&lt;br&gt;4c16g 3500 qps&lt;br&gt;&lt;div&gt;SH：4C/16G 8节点&amp;nbsp; CPU 23%&amp;nbsp; MEM 60%&lt;/div&gt;&lt;div&gt;GZ：4C/16G 3节点&amp;nbsp; CPU 11%&amp;nbsp; MEM 60%&lt;/div&gt;" style="rounded=0;whiteSpace=wrap;html=1;" parent="1" vertex="1">
          <mxGeometry x="160" y="310" width="280" height="60" as="geometry" />
        </mxCell>
        <mxCell id="30PJP_qh06dxxzhTbJQh-4" value="" style="endArrow=classic;html=1;exitX=0.5;exitY=1;exitDx=0;exitDy=0;entryX=0.583;entryY=0;entryDx=0;entryDy=0;entryPerimeter=0;" parent="1" source="30PJP_qh06dxxzhTbJQh-1" target="30PJP_qh06dxxzhTbJQh-3" edge="1">
          <mxGeometry width="50" height="50" relative="1" as="geometry">
            <mxPoint x="60" y="250" as="sourcePoint" />
            <mxPoint x="110" y="200" as="targetPoint" />
          </mxGeometry>
        </mxCell>
        <mxCell id="30PJP_qh06dxxzhTbJQh-5" value="&lt;font style=&quot;font-size: 14px&quot;&gt;advise&lt;br&gt;峰值3500qps&lt;/font&gt;" style="edgeLabel;html=1;align=center;verticalAlign=middle;resizable=0;points=[];" parent="30PJP_qh06dxxzhTbJQh-4" vertex="1" connectable="0">
          <mxGeometry x="-0.1317" y="1" relative="1" as="geometry">
            <mxPoint as="offset" />
          </mxGeometry>
        </mxCell>
        <mxCell id="30PJP_qh06dxxzhTbJQh-6" value="统计存储" style="shape=cylinder3;whiteSpace=wrap;html=1;boundedLbl=1;backgroundOutline=1;size=15;" parent="1" vertex="1">
          <mxGeometry x="125" y="480" width="60" height="80" as="geometry" />
        </mxCell>
        <mxCell id="30PJP_qh06dxxzhTbJQh-7" value="名单存储" style="shape=cylinder3;whiteSpace=wrap;html=1;boundedLbl=1;backgroundOutline=1;size=15;" parent="1" vertex="1">
          <mxGeometry x="250" y="480" width="60" height="80" as="geometry" />
        </mxCell>
        <mxCell id="30PJP_qh06dxxzhTbJQh-8" value="画像存储" style="shape=cylinder3;whiteSpace=wrap;html=1;boundedLbl=1;backgroundOutline=1;size=15;" parent="1" vertex="1">
          <mxGeometry x="380" y="480" width="60" height="80" as="geometry" />
        </mxCell>
        <mxCell id="30PJP_qh06dxxzhTbJQh-9" value="" style="endArrow=classic;html=1;exitX=0.25;exitY=1;exitDx=0;exitDy=0;entryX=0.5;entryY=0;entryDx=0;entryDy=0;entryPerimeter=0;" parent="1" source="30PJP_qh06dxxzhTbJQh-3" target="30PJP_qh06dxxzhTbJQh-6" edge="1">
          <mxGeometry width="50" height="50" relative="1" as="geometry">
            <mxPoint x="405" y="200" as="sourcePoint" />
            <mxPoint x="333.24" y="320" as="targetPoint" />
          </mxGeometry>
        </mxCell>
        <mxCell id="30PJP_qh06dxxzhTbJQh-10" value="&lt;font style=&quot;font-size: 14px&quot;&gt;query&lt;br&gt;峰值30000qps&lt;/font&gt;" style="edgeLabel;html=1;align=center;verticalAlign=middle;resizable=0;points=[];" parent="30PJP_qh06dxxzhTbJQh-9" vertex="1" connectable="0">
          <mxGeometry x="-0.1317" y="1" relative="1" as="geometry">
            <mxPoint as="offset" />
          </mxGeometry>
        </mxCell>
        <mxCell id="30PJP_qh06dxxzhTbJQh-11" value="" style="endArrow=classic;html=1;exitX=0.5;exitY=1;exitDx=0;exitDy=0;entryX=0.5;entryY=0;entryDx=0;entryDy=0;entryPerimeter=0;" parent="1" source="30PJP_qh06dxxzhTbJQh-3" target="30PJP_qh06dxxzhTbJQh-7" edge="1">
          <mxGeometry width="50" height="50" relative="1" as="geometry">
            <mxPoint x="240" y="380" as="sourcePoint" />
            <mxPoint x="200" y="490" as="targetPoint" />
          </mxGeometry>
        </mxCell>
        <mxCell id="30PJP_qh06dxxzhTbJQh-12" value="&lt;font style=&quot;font-size: 14px&quot;&gt;query&lt;br&gt;峰值8000qps&lt;/font&gt;" style="edgeLabel;html=1;align=center;verticalAlign=middle;resizable=0;points=[];" parent="30PJP_qh06dxxzhTbJQh-11" vertex="1" connectable="0">
          <mxGeometry x="-0.1317" y="1" relative="1" as="geometry">
            <mxPoint as="offset" />
          </mxGeometry>
        </mxCell>
        <mxCell id="30PJP_qh06dxxzhTbJQh-13" value="" style="endArrow=classic;html=1;exitX=0.75;exitY=1;exitDx=0;exitDy=0;entryX=0.5;entryY=0;entryDx=0;entryDy=0;entryPerimeter=0;" parent="1" source="30PJP_qh06dxxzhTbJQh-3" target="30PJP_qh06dxxzhTbJQh-8" edge="1">
          <mxGeometry width="50" height="50" relative="1" as="geometry">
            <mxPoint x="310" y="380" as="sourcePoint" />
            <mxPoint x="290" y="490" as="targetPoint" />
          </mxGeometry>
        </mxCell>
        <mxCell id="30PJP_qh06dxxzhTbJQh-14" value="&lt;font style=&quot;font-size: 14px&quot;&gt;query&lt;br&gt;峰值5000qps&lt;/font&gt;" style="edgeLabel;html=1;align=center;verticalAlign=middle;resizable=0;points=[];" parent="30PJP_qh06dxxzhTbJQh-13" vertex="1" connectable="0">
          <mxGeometry x="-0.1317" y="1" relative="1" as="geometry">
            <mxPoint as="offset" />
          </mxGeometry>
        </mxCell>
        <mxCell id="LBvdLEJ15WNLAvA44zd--3" value="" style="group" vertex="1" connectable="0" parent="1">
          <mxGeometry x="620" y="310" width="80" height="60" as="geometry" />
        </mxCell>
        <mxCell id="LBvdLEJ15WNLAvA44zd--1" value="" style="shape=cylinder3;whiteSpace=wrap;html=1;boundedLbl=1;backgroundOutline=1;size=15;rotation=-90;" vertex="1" parent="LBvdLEJ15WNLAvA44zd--3">
          <mxGeometry x="10" y="-10" width="60" height="80" as="geometry" />
        </mxCell>
        <mxCell id="LBvdLEJ15WNLAvA44zd--2" value="atta" style="text;html=1;strokeColor=none;fillColor=none;align=center;verticalAlign=middle;whiteSpace=wrap;rounded=0;" vertex="1" parent="LBvdLEJ15WNLAvA44zd--3">
          <mxGeometry x="30" y="20" width="40" height="20" as="geometry" />
        </mxCell>
        <mxCell id="LBvdLEJ15WNLAvA44zd--4" value="FLINK" style="rounded=0;whiteSpace=wrap;html=1;" vertex="1" parent="1">
          <mxGeometry x="520" y="490" width="120" height="60" as="geometry" />
        </mxCell>
        <mxCell id="LBvdLEJ15WNLAvA44zd--6" value="" style="endArrow=classic;html=1;exitX=1;exitY=0.5;exitDx=0;exitDy=0;entryX=0.5;entryY=0;entryDx=0;entryDy=0;" edge="1" parent="1" source="30PJP_qh06dxxzhTbJQh-3" target="LBvdLEJ15WNLAvA44zd--4">
          <mxGeometry width="50" height="50" relative="1" as="geometry">
            <mxPoint x="510" y="380" as="sourcePoint" />
            <mxPoint x="560" y="330" as="targetPoint" />
          </mxGeometry>
        </mxCell>
        <mxCell id="LBvdLEJ15WNLAvA44zd--7" value="峰值3500 tps" style="edgeLabel;html=1;align=center;verticalAlign=middle;resizable=0;points=[];" vertex="1" connectable="0" parent="LBvdLEJ15WNLAvA44zd--6">
          <mxGeometry x="-0.2689" relative="1" as="geometry">
            <mxPoint as="offset" />
          </mxGeometry>
        </mxCell>
        <mxCell id="LBvdLEJ15WNLAvA44zd--8" value="" style="endArrow=classic;html=1;exitX=0.25;exitY=1;exitDx=0;exitDy=0;edgeStyle=orthogonalEdgeStyle;entryX=0.5;entryY=1;entryDx=0;entryDy=0;entryPerimeter=0;" edge="1" parent="1" source="LBvdLEJ15WNLAvA44zd--4" target="30PJP_qh06dxxzhTbJQh-6">
          <mxGeometry width="50" height="50" relative="1" as="geometry">
            <mxPoint x="490" y="760" as="sourcePoint" />
            <mxPoint x="250" y="700" as="targetPoint" />
            <Array as="points">
              <mxPoint x="550" y="660" />
              <mxPoint x="155" y="660" />
            </Array>
          </mxGeometry>
        </mxCell>
        <mxCell id="LBvdLEJ15WNLAvA44zd--9" value="峰值5w tps" style="edgeLabel;html=1;align=center;verticalAlign=middle;resizable=0;points=[];" vertex="1" connectable="0" parent="LBvdLEJ15WNLAvA44zd--8">
          <mxGeometry x="0.0512" y="2" relative="1" as="geometry">
            <mxPoint as="offset" />
          </mxGeometry>
        </mxCell>
        <mxCell id="LBvdLEJ15WNLAvA44zd--10" value="" style="endArrow=classic;html=1;exitX=1;exitY=0.5;exitDx=0;exitDy=0;entryX=0.667;entryY=0;entryDx=0;entryDy=0;entryPerimeter=0;" edge="1" parent="1" source="30PJP_qh06dxxzhTbJQh-3" target="LBvdLEJ15WNLAvA44zd--1">
          <mxGeometry width="50" height="50" relative="1" as="geometry">
            <mxPoint x="450" y="350" as="sourcePoint" />
            <mxPoint x="590" y="500" as="targetPoint" />
          </mxGeometry>
        </mxCell>
        <mxCell id="LBvdLEJ15WNLAvA44zd--11" value="峰值3500" style="edgeLabel;html=1;align=center;verticalAlign=middle;resizable=0;points=[];" vertex="1" connectable="0" parent="LBvdLEJ15WNLAvA44zd--10">
          <mxGeometry x="-0.2689" relative="1" as="geometry">
            <mxPoint as="offset" />
          </mxGeometry>
        </mxCell>
      </root>
    </mxGraphModel>
  </diagram>
</mxfile>
